<?xml version="1.0"?>
<svg width="640" height="480" xmlns="http://www.w3.org/2000/svg" xmlns:svg="http://www.w3.org/2000/svg" xmlns:xlink="http://www.w3.org/1999/xlink">
 <!-- Created with SVG-edit - https://github.com/SVG-Edit/svgedit-->
 <defs>
  <symbol id="svg_1" viewBox="0 0 576 512" xmlns="http://www.w3.org/2000/svg">
   <!--! Font Awesome Pro 6.1.1 by @fontawesome - https://fontawesome.com License - https://fontawesome.com/license (Commercial License) Copyright 2022 Fonticons, Inc. -->
   <path d="m171.7,191.1l232.6,0l-81.6,-156.03c-6.1,-11.76 -1.5,-26.249 10.2,-32.364c11.8,-6.115 26.3,-1.539 32.4,10.224l93.1,178.17l85.6,0c17.7,0 32,15.2 32,32c0,18.6 -14.3,32 -32,32l-51.9,208.4c-8,28.5 -32.7,48.5 -62.1,48.5l-284.9,0c-28.5,0 -54.1,-20 -61.22,-48.5l-51.88,-208.4c-17.67,0 -32,-13.4 -32,-32c0,-16.8 14.33,-32 32,-32l85.6,0l93.1,-178.17c6.1,-11.763 20.6,-16.339 32.4,-10.224c11.7,6.115 16.3,20.604 10.2,32.364l-81.6,156.03zm19.4,112c0,-8 -6.3,-16 -16,-16c-7.9,0 -16,8 -16,16l0,96c0,9.7 8.1,16 16,16c9.7,0 16,-6.3 16,-16l0,-96zm80,0l0,96c0,9.7 8.1,16 16,16c9.7,0 16.9,-6.3 16.9,-16l0,-96c0,-8 -7.2,-16 -16.9,-16c-7.9,0 -16,8 -16,16zm144.9,0c0,-8 -7.2,-16 -16,-16c-8.8,0 -16,8 -16,16l0,96c0,9.7 7.2,16 16,16c8.8,0 16,-6.3 16,-16l0,-96z"/>
  </symbol>
 </defs>
 <g class="layer">
  <title>Layer 1</title>
  <use fill="#4ca711" id="svg_2" transform="matrix(0.880933 0 0 0.825063 -20.8101 27.9192)" x="72.423534" xlink:href="#svg_1" y="11.191507"/>
  <g id="svg_3"/>
 </g>
</svg>